# xmcd CD database file
#
# Track frame offsets:
#	150
#	7425
#	19410
#	30257
#	41662
#	50007
#	58670
#	78962
#	88402
#	105800
#	115555
#	123562
#	136780
#	146332
#	154627
#	163217
#	177195
#
# Disc length: 2466 seconds
#
# Revision: 2
# Processed by: cddbd v1.5.1PL0 Copyright (c) Steve Scherf et al.
# Submitted via: CDex 1.51
#
DISCID=db09a011
DTITLE=Janis Joplin - Janis (Disc2)
DYEAR=1996
DGENRE=Rock
TTITLE0=Trouble In Mind
TTITLE1=What Good Can Drinkin' Do
TTITLE2=Silver Threads And Golden Needles
TTITLE3=Mississippi River
TTITLE4=Stealin'
TTITLE5=No Reason For Livin'
TTITLE6=Black Mountain Blues
TTITLE7=Walk Right In
TTITLE8=River Jordan
TTITLE9=Mary Jane
TTITLE10=Kansas City Blues
TTITLE11=Daddy, Daddy, Daddy
TTITLE12=C.C. Rider
TTITLE13=San Francisco Bay Blues
TTITLE14=Winin' Boy
TTITLE15=Careless Love
TTITLE16=I'll Drown In My Own Tears
EXTD=YEAR: 1996
EXTT0=
EXTT1=
EXTT2=
EXTT3=
EXTT4=
EXTT5=
EXTT6=
EXTT7=
EXTT8=
EXTT9=
EXTT10=
EXTT11=
EXTT12=
EXTT13=
EXTT14=
EXTT15=
EXTT16=
PLAYORDER=
